<?xml version="1.0" standalone="yes"?>
<svg xmlns="http://www.w3.org/2000/svg" xmlns:xlink="http://www.w3.org/1999/xlink" xmlns:svg="http://www.w3.org/2000/svg" xmlns:dc="http://purl.org/dc/elements/1.1/" xmlns:cc="http://web.resource.org/cc/" xmlns:rdf="http://www.w3.org/1999/02/22-rdf-syntax-ns#" width="433" height="179">
<path style="fill:#ffffff; stroke:none;" d="M0 0L0 179L433 179L433 0L0 0z"/>
<path style="fill:#715f45; stroke:none;" d="M151.667 4.33333L152.333 4.66667L151.667 4.33333z"/>
<path style="fill:#432905; stroke:none;" d="M124 20C125.073 43.4261 148.463 31.0878 156.326 46.0008C161.929 56.625 159.427 69.8717 163.559 81C166.711 89.4859 173.887 95.8306 177.676 104C182.453 114.302 182.035 128.881 180.826 140C179.971 147.865 171.81 152.177 170.921 158.891C170.166 164.596 180.263 162.803 182.852 161.062C185.975 158.961 185.886 155.067 187.54 152C194.638 138.838 189.044 117.919 192.394 103C193.653 97.3905 199.751 92.703 200.033 87C200.398 79.6137 187.445 78.313 190.747 70.0579C193.047 64.3063 213.07 60.8564 219 57C219.008 68.535 218.077 90.1729 227.214 98.7569C233.031 104.222 242.808 97.7326 249 95.6312C252.716 94.37 264.239 95.3605 267.816 97.1173C271.783 99.0658 273.812 104.61 277.093 107.535C285.158 114.727 295.686 118.433 300.316 129C304.577 138.723 293.766 159.049 309.019 161.427C311.62 161.833 314.398 161.198 317 161C318.12 152.134 320.919 136.464 317.687 128C315.932 123.405 310.858 120.009 308.044 116C302.722 108.417 299.846 96.0516 302 87L304 87C307.735 100.684 313.02 126.156 330 128C328.236 119.438 318.873 110.946 315.404 102C307.81 82.4126 315.772 60.0592 292 49.3133C275.576 41.8892 257.133 45.2093 240 45.9606C226.788 46.5401 212.44 44.0506 200 39.4552C181.469 32.6099 179.276 5.9435 158 4.18826C147.282 3.30402 146.195 11.2678 138.985 16.4861C134.808 19.509 128.986 19.8971 124 20z"/>
<path style="fill:#a19583; stroke:none;" d="M160 4L160 5L163 5L160 4z"/>
<path style="fill:#d1c9c1; stroke:none;" d="M164.667 5.33333L165.333 5.66667L164.667 5.33333z"/>
<path style="fill:#715f45; stroke:none;" d="M144.333 9.66667L144.667 10.3333L144.333 9.66667z"/>
<path style="fill:#ada191; stroke:none;" d="M171 9L172 10L171 9z"/>
<path style="fill:#958773; stroke:none;" d="M173 11L174 12L173 11z"/>
<path style="fill:#a19583; stroke:none;" d="M143 12L144 13L143 12z"/>
<path style="fill:#ada191; stroke:none;" d="M177 16L178 17L177 16z"/>
<path style="fill:#a19583; stroke:none;" d="M138 17L139 18L138 17z"/>
<path style="fill:#ada191; stroke:none;" d="M134.667 18.3333L135.333 18.6667L134.667 18.3333z"/>
<path style="fill:#d1c9c1; stroke:none;" d="M124.667 19.3333L125.333 19.6667L124.667 19.3333z"/>
<path style="fill:#a19583; stroke:none;" d="M126 19L126 20L131 20L126 19M179 19L180 20L179 19z"/>
<path style="fill:#b9afa1; stroke:none;" d="M123 20L123 23L124 23L123 20z"/>
<path style="fill:#a19583; stroke:none;" d="M181 22L182 23L181 22z"/>
<path style="fill:#c5bdb1; stroke:none;" d="M124.333 25.6667L124.667 26.3333L124.333 25.6667z"/>
<path style="fill:#ada191; stroke:none;" d="M183 25L184 26L183 25z"/>
<path style="fill:#a19583; stroke:none;" d="M125 28L126 29L125 28M185 28L186 29L185 28z"/>
<path style="fill:#ada191; stroke:none;" d="M126 30L127 31L126 30z"/>
<path style="fill:#a19583; stroke:none;" d="M130 34L131 35L130 34M139.667 38.3333L140.333 38.6667L139.667 38.3333z"/>
<path style="fill:#715f45; stroke:none;" d="M141.667 38.3333L142.333 38.6667L141.667 38.3333z"/>
<path style="fill:#d1c9c1; stroke:none;" d="M147 38L147 39L150 39L147 38z"/>
<path style="fill:#b9afa1; stroke:none;" d="M199.667 39.3333L200.333 39.6667L199.667 39.3333z"/>
<path style="fill:#d1c9c1; stroke:none;" d="M203.667 40.3333L204.333 40.6667L203.667 40.3333z"/>
<path style="fill:#a19583; stroke:none;" d="M206.667 41.3333L207.333 41.6667L206.667 41.3333z"/>
<path style="fill:#ada191; stroke:none;" d="M211 42L211 43L214 43L211 42z"/>
<path style="fill:#b9afa1; stroke:none;" d="M216.667 43.3333L217.333 43.6667L216.667 43.3333z"/>
<path style="fill:#a19583; stroke:none;" d="M254 43L254 44L261 44L254 43z"/>
<path style="fill:#ada191; stroke:none;" d="M220.667 44.3333L221.333 44.6667L220.667 44.3333z"/>
<path style="fill:#d1c9c1; stroke:none;" d="M247.667 44.3333L248.333 44.6667L247.667 44.3333z"/>
<path style="fill:#958773; stroke:none;" d="M249.667 44.3333L250.333 44.6667L249.667 44.3333z"/>
<path style="fill:#b9afa1; stroke:none;" d="M262.667 44.3333L263.333 44.6667L262.667 44.3333z"/>
<path style="fill:#c5bdb1; stroke:none;" d="M156.333 45.6667L156.667 46.3333L156.333 45.6667z"/>
<path style="fill:#a19583; stroke:none;" d="M224.667 45.3333L225.333 45.6667L224.667 45.3333z"/>
<path style="fill:#d1c9c1; stroke:none;" d="M226 45L226 46L229 46L226 45M236 45L236 46L240 46L236 45z"/>
<path style="fill:#a19583; stroke:none;" d="M240 45L240 46L243 46L240 45z"/>
<path style="fill:#715f45; stroke:none;" d="M243.667 45.3333L244.333 45.6667L243.667 45.3333M266.667 45.3333L267.333 45.6667L266.667 45.3333M277.667 45.3333L278.333 45.6667L277.667 45.3333z"/>
<path style="fill:#c5bdb1; stroke:none;" d="M279.667 45.3333L280.333 45.6667L279.667 45.3333z"/>
<path style="fill:#b9afa1; stroke:none;" d="M283.667 46.3333L284.333 46.6667L283.667 46.3333z"/>
<path style="fill:#c5bdb1; stroke:none;" d="M157.333 48.6667L157.667 49.3333L157.333 48.6667z"/>
<path style="fill:#a19583; stroke:none;" d="M294 50L295 51L294 50z"/>
<path style="fill:#958773; stroke:none;" d="M158.333 51.6667L158.667 52.3333L158.333 51.6667z"/>
<path style="fill:#d1c9c1; stroke:none;" d="M158.333 53.6667L158.667 54.3333L158.333 53.6667z"/>
<path style="fill:#ada191; stroke:none;" d="M300 54L301 55L300 54z"/>
<path style="fill:#958773; stroke:none;" d="M159 57L159 60L160 60L159 57z"/>
<path style="fill:#997349; stroke:none;" d="M188 157C197.784 177.3 207.658 144.725 215.093 143.77C220.083 143.129 224.663 151.579 227 155C225.087 155.416 206.882 155.691 214.608 161.972C218.359 165.022 229.357 163 234 163L271 163C276.533 163 283.751 161.815 288.984 163.894C296.505 166.881 289.714 171.366 292.75 175.638C296.883 181.456 307.196 167.95 299.852 161.419C294.542 156.697 283.708 156.532 277 157.17C273.3 157.522 267.68 159.371 264.589 156.397C258.609 150.641 260.574 133.842 257.532 126C252.665 113.448 242.777 109.525 234 101C218.158 100.708 219 67.7809 219 57C212.518 59.8667 207.064 63.3955 200 65.1011C197.361 65.7383 192.985 65.4998 191.603 68.3179C187.467 76.7532 198.009 79.4558 199.323 86.0008C200.612 92.4167 191.887 101.219 192.005 109C192.144 118.217 199.205 122.837 201.827 131C205.116 141.24 195.907 152.311 188 157z"/>
<path style="fill:#a19583; stroke:none;" d="M303 57L304 58L303 57z"/>
<path style="fill:#d1c9c1; stroke:none;" d="M159.333 60.6667L159.667 61.3333L159.333 60.6667z"/>
<path style="fill:#958773; stroke:none;" d="M305 60L306 61L305 60z"/>
<path style="fill:#715f45; stroke:none;" d="M160.333 64.6667L160.667 65.3333L160.333 64.6667z"/>
<path style="fill:#a19583; stroke:none;" d="M160.333 66.6667L160.667 67.3333L160.333 66.6667z"/>
<path style="fill:#6d4f27; stroke:none;" d="M219 66L219 72L220 72L219 66z"/>
<path style="fill:#d1c9c1; stroke:none;" d="M160.333 68.6667L160.667 69.3333L160.333 68.6667z"/>
<path style="fill:#6d4f27; stroke:none;" d="M190 69L190 77L191 77L190 69z"/>
<path style="fill:#897b63; stroke:none;" d="M310.333 70.6667L310.667 71.3333L310.333 70.6667z"/>
<path style="fill:#a19583; stroke:none;" d="M161 72L161 75L162 75L161 72z"/>
<path style="fill:#b9afa1; stroke:none;" d="M162.333 77.6667L162.667 78.3333L162.333 77.6667M312.333 77.6667L312.667 78.3333L312.333 77.6667z"/>
<path style="fill:#715f45; stroke:none;" d="M312 79L312 88L313 88L312 79z"/>
<path style="fill:#a19583; stroke:none;" d="M166 86L167 87L166 86z"/>
<path style="fill:#d1c9c1; stroke:none;" d="M301 88L301 98L302 98L301 88z"/>
<path style="fill:#a19583; stroke:none;" d="M168 89L169 90L168 89z"/>
<path style="fill:#c5bdb1; stroke:none;" d="M305.333 91.6667L305.667 92.3333L305.333 91.6667z"/>
<path style="fill:#ada191; stroke:none;" d="M170 92L171 93L170 92z"/>
<path style="fill:#c5bdb1; stroke:none;" d="M313 94L313 97L314 97L313 94z"/>
<path style="fill:#958773; stroke:none;" d="M256 95L257 96L256 95M173 96L174 97L173 96z"/>
<path style="fill:#a19583; stroke:none;" d="M264 96L264 97L267 97L264 96z"/>
<path style="fill:#c5bdb1; stroke:none;" d="M307.333 97.6667L307.667 98.3333L307.333 97.6667z"/>
<path style="fill:#a19583; stroke:none;" d="M175 99L176 100L175 99z"/>
<path style="fill:#715f45; stroke:none;" d="M314.333 99.6667L314.667 100.333L314.333 99.6667z"/>
<path style="fill:#ada191; stroke:none;" d="M271 100L272 101L271 100z"/>
<path style="fill:#c5bdb1; stroke:none;" d="M308.333 100.667L308.667 101.333L308.333 100.667z"/>
<path style="fill:#958773; stroke:none;" d="M273 103L274 104L273 103z"/>
<path style="fill:#a19583; stroke:none;" d="M303 103L303 107L304 107L303 103z"/>
<path style="fill:#c5bdb1; stroke:none;" d="M309.333 103.667L309.667 104.333L309.333 103.667z"/>
<path style="fill:#715f45; stroke:none;" d="M316.333 104.667L316.667 105.333L316.333 104.667z"/>
<path style="fill:#958773; stroke:none;" d="M310 106L311 107L310 106z"/>
<path style="fill:#b9afa1; stroke:none;" d="M179 108L179 111L180 111L179 108z"/>
<path style="fill:#958773; stroke:none;" d="M278 108L279 109L278 108z"/>
<path style="fill:#7d6d53; stroke:none;" d="M304.333 109.667L304.667 110.333L304.333 109.667z"/>
<path style="fill:#897b63; stroke:none;" d="M318.333 109.667L318.667 110.333L318.333 109.667z"/>
<path style="fill:#ada191; stroke:none;" d="M282 111L283 112L282 111z"/>
<path style="fill:#958773; stroke:none;" d="M312 111L313 112L312 111z"/>
<path style="fill:#a19583; stroke:none;" d="M305 112L306 113L305 112z"/>
<path style="fill:#715f45; stroke:none;" d="M180.333 113.667L180.667 114.333L180.333 113.667z"/>
<path style="fill:#958773; stroke:none;" d="M287 114L288 115L287 114z"/>
<path style="fill:#a19583; stroke:none;" d="M180 115L180 119L181 119L180 115z"/>
<path style="fill:#958773; stroke:none;" d="M191 116L192 117L191 116z"/>
<path style="fill:#ada191; stroke:none;" d="M291 117L292 118L291 117M309 118L310 119L309 118z"/>
<path style="fill:#d1c9c1; stroke:none;" d="M180 119L180 125L181 125L180 119M190 121L190 128L191 128L190 121z"/>
<path style="fill:#ada191; stroke:none;" d="M326 121L327 122L326 121M297 123L298 124L297 123z"/>
<path style="fill:#958773; stroke:none;" d="M329 124L330 125L329 124M322 125L323 126L322 125z"/>
<path style="fill:#d1c9c1; stroke:none;" d="M299.333 126.667L299.667 127.333L299.333 126.667z"/>
<path style="fill:#715f45; stroke:none;" d="M330.333 126.667L330.667 127.333L330.333 126.667z"/>
<path style="fill:#a19583; stroke:none;" d="M190 128L190 137L191 137L190 128z"/>
<path style="fill:#d1c9c1; stroke:none;" d="M329.667 128.333L330.333 128.667L329.667 128.333z"/>
<path style="fill:#a19583; stroke:none;" d="M318 129L318 133L319 133L318 129z"/>
<path style="fill:#cbb9a5; stroke:none;" d="M259 131L259 134L260 134L259 131z"/>
<path style="fill:#a19583; stroke:none;" d="M301.333 131.667L301.667 132.333L301.333 131.667z"/>
<path style="fill:#b39777; stroke:none;" d="M202 132L202 136L203 136L202 132z"/>
<path style="fill:#d1c9c1; stroke:none;" d="M180 133L180 138L181 138L180 133M318 133L318 152L319 152L318 133z"/>
<path style="fill:#a19583; stroke:none;" d="M302 136L302 141L303 141L302 136z"/>
<path style="fill:#715f45; stroke:none;" d="M190 137L190 146L191 146L190 137z"/>
<path style="fill:#d3c3af; stroke:none;" d="M201 137L201 140L202 140L201 137z"/>
<path style="fill:#a19583; stroke:none;" d="M180 138L180 141L181 141L180 138z"/>
<path style="fill:#715f45; stroke:none;" d="M180.333 141.667L180.667 142.333L180.333 141.667z"/>
<path style="fill:#cbb9a5; stroke:none;" d="M261 141L261 147L262 147L261 141z"/>
<path style="fill:#d1c9c1; stroke:none;" d="M302 141L302 145L303 145L302 141z"/>
<path style="fill:#a19583; stroke:none;" d="M179.333 145.667L179.667 146.333L179.333 145.667z"/>
<path style="fill:#ada191; stroke:none;" d="M299 147L300 148L299 147z"/>
<path style="fill:#d1c9c1; stroke:none;" d="M298 148L298 151L299 151L298 148z"/>
<path style="fill:#d9cbbb; stroke:none;" d="M262 149L262 152L263 152L262 149z"/>
<path style="fill:#d1c9c1; stroke:none;" d="M186 152L186 158L187 158L186 152z"/>
<path style="fill:#d3c3af; stroke:none;" d="M216 154L216 155L219 155L216 154z"/>
<path style="fill:#a19583; stroke:none;" d="M300 154L301 155L300 154z"/>
<path style="fill:#cbb9a5; stroke:none;" d="M220 155L220 156L226 156L220 155z"/>
<path style="fill:#bfa98f; stroke:none;" d="M263.333 155.667L263.667 156.333L263.333 155.667z"/>
<path style="fill:#b39777; stroke:none;" d="M264 157L264 158L275 158L264 157z"/>
<path style="fill:#cbb9a5; stroke:none;" d="M287 157L287 158L291 158L287 157z"/>
<path style="fill:#715f45; stroke:none;" d="M317.333 157.667L317.667 158.333L317.333 157.667z"/>
<path style="fill:#cbb9a5; stroke:none;" d="M212 158L212 161L213 161L212 158z"/>
<path style="fill:#ada191; stroke:none;" d="M317.333 159.667L317.667 160.333L317.333 159.667z"/>
<path style="fill:#958773; stroke:none;" d="M184 160L185 161L184 160z"/>
<path style="fill:#d1c9c1; stroke:none;" d="M170.333 161.667L170.667 162.333L170.333 161.667z"/>
<path style="fill:#ada191; stroke:none;" d="M183 161L184 162L183 161z"/>
<path style="fill:#715f45; stroke:none;" d="M307.667 161.333L308.333 161.667L307.667 161.333M312 161L312 162L316 162L312 161M171.667 162.333L172.333 162.667L171.667 162.333z"/>
<path style="fill:#897b63; stroke:none;" d="M179 162L179 163L182 163L179 162z"/>
<path style="fill:#e5ddd1; stroke:none;" d="M223 163L223 164L247 164L223 163z"/>
<path style="fill:#cbb9a5; stroke:none;" d="M247 163L247 164L264 164L247 163z"/>
<path style="fill:#e5ddd1; stroke:none;" d="M264 163L264 164L280 164L264 163z"/>
<path style="fill:#cbb9a5; stroke:none;" d="M303 166L303 171L304 171L303 166z"/>
<path style="fill:#c5b199; stroke:none;" d="M294.333 168.667L294.667 169.333L294.333 168.667z"/>
<path style="fill:#ada191; stroke:none;" d="M317.667 178.333L318.333 178.667L317.667 178.333z"/>
<path style="fill:#a19583; stroke:none;" d="M338 178L338 179L341 179L338 178z"/>
</svg>
